G04 #@! TF.FileFunction,Soldermask,Top*
%FSLAX46Y46*%
G04 Gerber Fmt 4.6, Leading zero omitted, Abs format (unit mm)*
G04 Created by KiCad (PCBNEW 4.0.4-stable) date 11/06/16 19:23:54*
%MOMM*%
%LPD*%
G01*
G04 APERTURE LIST*
%ADD10C,0.100000*%
%ADD11C,1.924000*%
%ADD12R,2.127200X2.127200*%
%ADD13O,2.127200X2.127200*%
%ADD14C,3.600000*%
G04 APERTURE END LIST*
D10*
D11*
X83820000Y-121920000D03*
X86360000Y-121920000D03*
X88900000Y-121920000D03*
X91440000Y-121920000D03*
X93980000Y-121920000D03*
X96520000Y-121920000D03*
X99060000Y-121920000D03*
X101600000Y-121920000D03*
X104140000Y-121920000D03*
X106680000Y-121920000D03*
X109220000Y-121920000D03*
X111760000Y-121920000D03*
X114300000Y-121920000D03*
X182880000Y-121920000D03*
X185420000Y-121920000D03*
X187960000Y-121920000D03*
X190500000Y-121920000D03*
X193040000Y-121920000D03*
X195580000Y-121920000D03*
X198120000Y-121920000D03*
X200660000Y-121920000D03*
X203200000Y-121920000D03*
X205740000Y-121920000D03*
X208280000Y-121920000D03*
X210820000Y-121920000D03*
X213360000Y-121920000D03*
D12*
X132080000Y-91440000D03*
D13*
X132080000Y-88900000D03*
X134620000Y-91440000D03*
X134620000Y-88900000D03*
X137160000Y-91440000D03*
X137160000Y-88900000D03*
X139700000Y-91440000D03*
X139700000Y-88900000D03*
X142240000Y-91440000D03*
X142240000Y-88900000D03*
X144780000Y-91440000D03*
X144780000Y-88900000D03*
X147320000Y-91440000D03*
X147320000Y-88900000D03*
X149860000Y-91440000D03*
X149860000Y-88900000D03*
X152400000Y-91440000D03*
X152400000Y-88900000D03*
X154940000Y-91440000D03*
X154940000Y-88900000D03*
X157480000Y-91440000D03*
X157480000Y-88900000D03*
X160020000Y-91440000D03*
X160020000Y-88900000D03*
X162560000Y-91440000D03*
X162560000Y-88900000D03*
X165100000Y-91440000D03*
X165100000Y-88900000D03*
D14*
X71120000Y-81280000D03*
X226060000Y-81280000D03*
X226060000Y-128270000D03*
X71120000Y-128270000D03*
M02*
