G04 #@! TF.FileFunction,Copper,L1,Top,Signal*
%FSLAX46Y46*%
G04 Gerber Fmt 4.6, Leading zero omitted, Abs format (unit mm)*
G04 Created by KiCad (PCBNEW 4.0.4-stable) date 11/06/16 19:23:54*
%MOMM*%
%LPD*%
G01*
G04 APERTURE LIST*
%ADD10C,0.100000*%
%ADD11C,1.524000*%
%ADD12R,1.727200X1.727200*%
%ADD13O,1.727200X1.727200*%
%ADD14C,0.254000*%
G04 APERTURE END LIST*
D10*
D11*
X83820000Y-121920000D03*
X86360000Y-121920000D03*
X88900000Y-121920000D03*
X91440000Y-121920000D03*
X93980000Y-121920000D03*
X96520000Y-121920000D03*
X99060000Y-121920000D03*
X101600000Y-121920000D03*
X104140000Y-121920000D03*
X106680000Y-121920000D03*
X109220000Y-121920000D03*
X111760000Y-121920000D03*
X114300000Y-121920000D03*
X182880000Y-121920000D03*
X185420000Y-121920000D03*
X187960000Y-121920000D03*
X190500000Y-121920000D03*
X193040000Y-121920000D03*
X195580000Y-121920000D03*
X198120000Y-121920000D03*
X200660000Y-121920000D03*
X203200000Y-121920000D03*
X205740000Y-121920000D03*
X208280000Y-121920000D03*
X210820000Y-121920000D03*
X213360000Y-121920000D03*
D12*
X132080000Y-91440000D03*
D13*
X132080000Y-88900000D03*
X134620000Y-91440000D03*
X134620000Y-88900000D03*
X137160000Y-91440000D03*
X137160000Y-88900000D03*
X139700000Y-91440000D03*
X139700000Y-88900000D03*
X142240000Y-91440000D03*
X142240000Y-88900000D03*
X144780000Y-91440000D03*
X144780000Y-88900000D03*
X147320000Y-91440000D03*
X147320000Y-88900000D03*
X149860000Y-91440000D03*
X149860000Y-88900000D03*
X152400000Y-91440000D03*
X152400000Y-88900000D03*
X154940000Y-91440000D03*
X154940000Y-88900000D03*
X157480000Y-91440000D03*
X157480000Y-88900000D03*
X160020000Y-91440000D03*
X160020000Y-88900000D03*
X162560000Y-91440000D03*
X162560000Y-88900000D03*
X165100000Y-91440000D03*
X165100000Y-88900000D03*
D14*
G36*
X230430000Y-132640000D02*
X66750000Y-132640000D01*
X66750000Y-127862346D01*
X68877974Y-127862346D01*
X68884984Y-128287425D01*
X68884613Y-128712619D01*
X68892303Y-128731230D01*
X68892635Y-128751363D01*
X69204640Y-129504610D01*
X69213845Y-129509420D01*
X69224155Y-129534372D01*
X69852321Y-130163636D01*
X69880057Y-130175153D01*
X69885390Y-130185360D01*
X70280797Y-130341554D01*
X70673481Y-130504611D01*
X70693619Y-130504629D01*
X70712346Y-130512026D01*
X71137425Y-130505016D01*
X71562619Y-130505387D01*
X71581230Y-130497697D01*
X71601363Y-130497365D01*
X72354610Y-130185360D01*
X72359420Y-130176155D01*
X72384372Y-130165845D01*
X73013636Y-129537679D01*
X73025153Y-129509943D01*
X73035360Y-129504610D01*
X73191554Y-129109203D01*
X73354611Y-128716519D01*
X73354629Y-128696381D01*
X73362026Y-128677654D01*
X73355016Y-128252575D01*
X73355356Y-127862346D01*
X223817974Y-127862346D01*
X223824984Y-128287425D01*
X223824613Y-128712619D01*
X223832303Y-128731230D01*
X223832635Y-128751363D01*
X224144640Y-129504610D01*
X224153845Y-129509420D01*
X224164155Y-129534372D01*
X224792321Y-130163636D01*
X224820057Y-130175153D01*
X224825390Y-130185360D01*
X225220797Y-130341554D01*
X225613481Y-130504611D01*
X225633619Y-130504629D01*
X225652346Y-130512026D01*
X226077425Y-130505016D01*
X226502619Y-130505387D01*
X226521230Y-130497697D01*
X226541363Y-130497365D01*
X227294610Y-130185360D01*
X227299420Y-130176155D01*
X227324372Y-130165845D01*
X227953636Y-129537679D01*
X227965153Y-129509943D01*
X227975360Y-129504610D01*
X228131554Y-129109203D01*
X228294611Y-128716519D01*
X228294629Y-128696381D01*
X228302026Y-128677654D01*
X228295016Y-128252575D01*
X228295387Y-127827381D01*
X228287697Y-127808770D01*
X228287365Y-127788637D01*
X227975360Y-127035390D01*
X227966155Y-127030580D01*
X227955845Y-127005628D01*
X227327679Y-126376364D01*
X227299943Y-126364847D01*
X227294610Y-126354640D01*
X226899203Y-126198446D01*
X226506519Y-126035389D01*
X226486381Y-126035371D01*
X226467654Y-126027974D01*
X226042575Y-126034984D01*
X225617381Y-126034613D01*
X225598770Y-126042303D01*
X225578637Y-126042635D01*
X224825390Y-126354640D01*
X224820580Y-126363845D01*
X224795628Y-126374155D01*
X224166364Y-127002321D01*
X224154847Y-127030057D01*
X224144640Y-127035390D01*
X223988446Y-127430797D01*
X223825389Y-127823481D01*
X223825371Y-127843619D01*
X223817974Y-127862346D01*
X73355356Y-127862346D01*
X73355387Y-127827381D01*
X73347697Y-127808770D01*
X73347365Y-127788637D01*
X73035360Y-127035390D01*
X73026155Y-127030580D01*
X73015845Y-127005628D01*
X72387679Y-126376364D01*
X72359943Y-126364847D01*
X72354610Y-126354640D01*
X71959203Y-126198446D01*
X71566519Y-126035389D01*
X71546381Y-126035371D01*
X71527654Y-126027974D01*
X71102575Y-126034984D01*
X70677381Y-126034613D01*
X70658770Y-126042303D01*
X70638637Y-126042635D01*
X69885390Y-126354640D01*
X69880580Y-126363845D01*
X69855628Y-126374155D01*
X69226364Y-127002321D01*
X69214847Y-127030057D01*
X69204640Y-127035390D01*
X69048446Y-127430797D01*
X68885389Y-127823481D01*
X68885371Y-127843619D01*
X68877974Y-127862346D01*
X66750000Y-127862346D01*
X66750000Y-122196661D01*
X82422758Y-122196661D01*
X82634990Y-122710303D01*
X83027630Y-123103629D01*
X83540900Y-123316757D01*
X84096661Y-123317242D01*
X84610303Y-123105010D01*
X85003629Y-122712370D01*
X85089949Y-122504488D01*
X85174990Y-122710303D01*
X85567630Y-123103629D01*
X86080900Y-123316757D01*
X86636661Y-123317242D01*
X87150303Y-123105010D01*
X87543629Y-122712370D01*
X87629949Y-122504488D01*
X87714990Y-122710303D01*
X88107630Y-123103629D01*
X88620900Y-123316757D01*
X89176661Y-123317242D01*
X89690303Y-123105010D01*
X90083629Y-122712370D01*
X90169949Y-122504488D01*
X90254990Y-122710303D01*
X90647630Y-123103629D01*
X91160900Y-123316757D01*
X91716661Y-123317242D01*
X92230303Y-123105010D01*
X92623629Y-122712370D01*
X92709949Y-122504488D01*
X92794990Y-122710303D01*
X93187630Y-123103629D01*
X93700900Y-123316757D01*
X94256661Y-123317242D01*
X94770303Y-123105010D01*
X95163629Y-122712370D01*
X95249949Y-122504488D01*
X95334990Y-122710303D01*
X95727630Y-123103629D01*
X96240900Y-123316757D01*
X96796661Y-123317242D01*
X97310303Y-123105010D01*
X97703629Y-122712370D01*
X97789949Y-122504488D01*
X97874990Y-122710303D01*
X98267630Y-123103629D01*
X98780900Y-123316757D01*
X99336661Y-123317242D01*
X99850303Y-123105010D01*
X100243629Y-122712370D01*
X100329949Y-122504488D01*
X100414990Y-122710303D01*
X100807630Y-123103629D01*
X101320900Y-123316757D01*
X101876661Y-123317242D01*
X102390303Y-123105010D01*
X102783629Y-122712370D01*
X102869949Y-122504488D01*
X102954990Y-122710303D01*
X103347630Y-123103629D01*
X103860900Y-123316757D01*
X104416661Y-123317242D01*
X104930303Y-123105010D01*
X105323629Y-122712370D01*
X105409949Y-122504488D01*
X105494990Y-122710303D01*
X105887630Y-123103629D01*
X106400900Y-123316757D01*
X106956661Y-123317242D01*
X107470303Y-123105010D01*
X107863629Y-122712370D01*
X107949949Y-122504488D01*
X108034990Y-122710303D01*
X108427630Y-123103629D01*
X108940900Y-123316757D01*
X109496661Y-123317242D01*
X110010303Y-123105010D01*
X110403629Y-122712370D01*
X110489949Y-122504488D01*
X110574990Y-122710303D01*
X110967630Y-123103629D01*
X111480900Y-123316757D01*
X112036661Y-123317242D01*
X112550303Y-123105010D01*
X112943629Y-122712370D01*
X113029949Y-122504488D01*
X113114990Y-122710303D01*
X113507630Y-123103629D01*
X114020900Y-123316757D01*
X114576661Y-123317242D01*
X115090303Y-123105010D01*
X115483629Y-122712370D01*
X115696757Y-122199100D01*
X115696759Y-122196661D01*
X181482758Y-122196661D01*
X181694990Y-122710303D01*
X182087630Y-123103629D01*
X182600900Y-123316757D01*
X183156661Y-123317242D01*
X183670303Y-123105010D01*
X184063629Y-122712370D01*
X184149949Y-122504488D01*
X184234990Y-122710303D01*
X184627630Y-123103629D01*
X185140900Y-123316757D01*
X185696661Y-123317242D01*
X186210303Y-123105010D01*
X186603629Y-122712370D01*
X186689949Y-122504488D01*
X186774990Y-122710303D01*
X187167630Y-123103629D01*
X187680900Y-123316757D01*
X188236661Y-123317242D01*
X188750303Y-123105010D01*
X189143629Y-122712370D01*
X189229949Y-122504488D01*
X189314990Y-122710303D01*
X189707630Y-123103629D01*
X190220900Y-123316757D01*
X190776661Y-123317242D01*
X191290303Y-123105010D01*
X191683629Y-122712370D01*
X191769949Y-122504488D01*
X191854990Y-122710303D01*
X192247630Y-123103629D01*
X192760900Y-123316757D01*
X193316661Y-123317242D01*
X193830303Y-123105010D01*
X194223629Y-122712370D01*
X194309949Y-122504488D01*
X194394990Y-122710303D01*
X194787630Y-123103629D01*
X195300900Y-123316757D01*
X195856661Y-123317242D01*
X196370303Y-123105010D01*
X196763629Y-122712370D01*
X196849949Y-122504488D01*
X196934990Y-122710303D01*
X197327630Y-123103629D01*
X197840900Y-123316757D01*
X198396661Y-123317242D01*
X198910303Y-123105010D01*
X199303629Y-122712370D01*
X199389949Y-122504488D01*
X199474990Y-122710303D01*
X199867630Y-123103629D01*
X200380900Y-123316757D01*
X200936661Y-123317242D01*
X201450303Y-123105010D01*
X201843629Y-122712370D01*
X201929949Y-122504488D01*
X202014990Y-122710303D01*
X202407630Y-123103629D01*
X202920900Y-123316757D01*
X203476661Y-123317242D01*
X203990303Y-123105010D01*
X204383629Y-122712370D01*
X204469949Y-122504488D01*
X204554990Y-122710303D01*
X204947630Y-123103629D01*
X205460900Y-123316757D01*
X206016661Y-123317242D01*
X206530303Y-123105010D01*
X206923629Y-122712370D01*
X207009949Y-122504488D01*
X207094990Y-122710303D01*
X207487630Y-123103629D01*
X208000900Y-123316757D01*
X208556661Y-123317242D01*
X209070303Y-123105010D01*
X209463629Y-122712370D01*
X209549949Y-122504488D01*
X209634990Y-122710303D01*
X210027630Y-123103629D01*
X210540900Y-123316757D01*
X211096661Y-123317242D01*
X211610303Y-123105010D01*
X212003629Y-122712370D01*
X212089949Y-122504488D01*
X212174990Y-122710303D01*
X212567630Y-123103629D01*
X213080900Y-123316757D01*
X213636661Y-123317242D01*
X214150303Y-123105010D01*
X214543629Y-122712370D01*
X214756757Y-122199100D01*
X214757242Y-121643339D01*
X214545010Y-121129697D01*
X214152370Y-120736371D01*
X213639100Y-120523243D01*
X213083339Y-120522758D01*
X212569697Y-120734990D01*
X212176371Y-121127630D01*
X212090051Y-121335512D01*
X212005010Y-121129697D01*
X211612370Y-120736371D01*
X211099100Y-120523243D01*
X210543339Y-120522758D01*
X210029697Y-120734990D01*
X209636371Y-121127630D01*
X209550051Y-121335512D01*
X209465010Y-121129697D01*
X209072370Y-120736371D01*
X208559100Y-120523243D01*
X208003339Y-120522758D01*
X207489697Y-120734990D01*
X207096371Y-121127630D01*
X207010051Y-121335512D01*
X206925010Y-121129697D01*
X206532370Y-120736371D01*
X206019100Y-120523243D01*
X205463339Y-120522758D01*
X204949697Y-120734990D01*
X204556371Y-121127630D01*
X204470051Y-121335512D01*
X204385010Y-121129697D01*
X203992370Y-120736371D01*
X203479100Y-120523243D01*
X202923339Y-120522758D01*
X202409697Y-120734990D01*
X202016371Y-121127630D01*
X201930051Y-121335512D01*
X201845010Y-121129697D01*
X201452370Y-120736371D01*
X200939100Y-120523243D01*
X200383339Y-120522758D01*
X199869697Y-120734990D01*
X199476371Y-121127630D01*
X199390051Y-121335512D01*
X199305010Y-121129697D01*
X198912370Y-120736371D01*
X198399100Y-120523243D01*
X197843339Y-120522758D01*
X197329697Y-120734990D01*
X196936371Y-121127630D01*
X196850051Y-121335512D01*
X196765010Y-121129697D01*
X196372370Y-120736371D01*
X195859100Y-120523243D01*
X195303339Y-120522758D01*
X194789697Y-120734990D01*
X194396371Y-121127630D01*
X194310051Y-121335512D01*
X194225010Y-121129697D01*
X193832370Y-120736371D01*
X193319100Y-120523243D01*
X192763339Y-120522758D01*
X192249697Y-120734990D01*
X191856371Y-121127630D01*
X191770051Y-121335512D01*
X191685010Y-121129697D01*
X191292370Y-120736371D01*
X190779100Y-120523243D01*
X190223339Y-120522758D01*
X189709697Y-120734990D01*
X189316371Y-121127630D01*
X189230051Y-121335512D01*
X189145010Y-121129697D01*
X188752370Y-120736371D01*
X188239100Y-120523243D01*
X187683339Y-120522758D01*
X187169697Y-120734990D01*
X186776371Y-121127630D01*
X186690051Y-121335512D01*
X186605010Y-121129697D01*
X186212370Y-120736371D01*
X185699100Y-120523243D01*
X185143339Y-120522758D01*
X184629697Y-120734990D01*
X184236371Y-121127630D01*
X184150051Y-121335512D01*
X184065010Y-121129697D01*
X183672370Y-120736371D01*
X183159100Y-120523243D01*
X182603339Y-120522758D01*
X182089697Y-120734990D01*
X181696371Y-121127630D01*
X181483243Y-121640900D01*
X181482758Y-122196661D01*
X115696759Y-122196661D01*
X115697242Y-121643339D01*
X115485010Y-121129697D01*
X115092370Y-120736371D01*
X114579100Y-120523243D01*
X114023339Y-120522758D01*
X113509697Y-120734990D01*
X113116371Y-121127630D01*
X113030051Y-121335512D01*
X112945010Y-121129697D01*
X112552370Y-120736371D01*
X112039100Y-120523243D01*
X111483339Y-120522758D01*
X110969697Y-120734990D01*
X110576371Y-121127630D01*
X110490051Y-121335512D01*
X110405010Y-121129697D01*
X110012370Y-120736371D01*
X109499100Y-120523243D01*
X108943339Y-120522758D01*
X108429697Y-120734990D01*
X108036371Y-121127630D01*
X107950051Y-121335512D01*
X107865010Y-121129697D01*
X107472370Y-120736371D01*
X106959100Y-120523243D01*
X106403339Y-120522758D01*
X105889697Y-120734990D01*
X105496371Y-121127630D01*
X105410051Y-121335512D01*
X105325010Y-121129697D01*
X104932370Y-120736371D01*
X104419100Y-120523243D01*
X103863339Y-120522758D01*
X103349697Y-120734990D01*
X102956371Y-121127630D01*
X102870051Y-121335512D01*
X102785010Y-121129697D01*
X102392370Y-120736371D01*
X101879100Y-120523243D01*
X101323339Y-120522758D01*
X100809697Y-120734990D01*
X100416371Y-121127630D01*
X100330051Y-121335512D01*
X100245010Y-121129697D01*
X99852370Y-120736371D01*
X99339100Y-120523243D01*
X98783339Y-120522758D01*
X98269697Y-120734990D01*
X97876371Y-121127630D01*
X97790051Y-121335512D01*
X97705010Y-121129697D01*
X97312370Y-120736371D01*
X96799100Y-120523243D01*
X96243339Y-120522758D01*
X95729697Y-120734990D01*
X95336371Y-121127630D01*
X95250051Y-121335512D01*
X95165010Y-121129697D01*
X94772370Y-120736371D01*
X94259100Y-120523243D01*
X93703339Y-120522758D01*
X93189697Y-120734990D01*
X92796371Y-121127630D01*
X92710051Y-121335512D01*
X92625010Y-121129697D01*
X92232370Y-120736371D01*
X91719100Y-120523243D01*
X91163339Y-120522758D01*
X90649697Y-120734990D01*
X90256371Y-121127630D01*
X90170051Y-121335512D01*
X90085010Y-121129697D01*
X89692370Y-120736371D01*
X89179100Y-120523243D01*
X88623339Y-120522758D01*
X88109697Y-120734990D01*
X87716371Y-121127630D01*
X87630051Y-121335512D01*
X87545010Y-121129697D01*
X87152370Y-120736371D01*
X86639100Y-120523243D01*
X86083339Y-120522758D01*
X85569697Y-120734990D01*
X85176371Y-121127630D01*
X85090051Y-121335512D01*
X85005010Y-121129697D01*
X84612370Y-120736371D01*
X84099100Y-120523243D01*
X83543339Y-120522758D01*
X83029697Y-120734990D01*
X82636371Y-121127630D01*
X82423243Y-121640900D01*
X82422758Y-122196661D01*
X66750000Y-122196661D01*
X66750000Y-90576400D01*
X130568960Y-90576400D01*
X130568960Y-92303600D01*
X130613238Y-92538917D01*
X130752310Y-92755041D01*
X130964510Y-92900031D01*
X131216400Y-92951040D01*
X132943600Y-92951040D01*
X133178917Y-92906762D01*
X133395041Y-92767690D01*
X133540031Y-92555490D01*
X133548864Y-92511869D01*
X133560330Y-92529029D01*
X134046511Y-92853885D01*
X134620000Y-92967959D01*
X135193489Y-92853885D01*
X135679670Y-92529029D01*
X135890000Y-92214248D01*
X136100330Y-92529029D01*
X136586511Y-92853885D01*
X137160000Y-92967959D01*
X137733489Y-92853885D01*
X138219670Y-92529029D01*
X138430000Y-92214248D01*
X138640330Y-92529029D01*
X139126511Y-92853885D01*
X139700000Y-92967959D01*
X140273489Y-92853885D01*
X140759670Y-92529029D01*
X140970000Y-92214248D01*
X141180330Y-92529029D01*
X141666511Y-92853885D01*
X142240000Y-92967959D01*
X142813489Y-92853885D01*
X143299670Y-92529029D01*
X143510000Y-92214248D01*
X143720330Y-92529029D01*
X144206511Y-92853885D01*
X144780000Y-92967959D01*
X145353489Y-92853885D01*
X145839670Y-92529029D01*
X146050000Y-92214248D01*
X146260330Y-92529029D01*
X146746511Y-92853885D01*
X147320000Y-92967959D01*
X147893489Y-92853885D01*
X148379670Y-92529029D01*
X148590000Y-92214248D01*
X148800330Y-92529029D01*
X149286511Y-92853885D01*
X149860000Y-92967959D01*
X150433489Y-92853885D01*
X150919670Y-92529029D01*
X151130000Y-92214248D01*
X151340330Y-92529029D01*
X151826511Y-92853885D01*
X152400000Y-92967959D01*
X152973489Y-92853885D01*
X153459670Y-92529029D01*
X153670000Y-92214248D01*
X153880330Y-92529029D01*
X154366511Y-92853885D01*
X154940000Y-92967959D01*
X155513489Y-92853885D01*
X155999670Y-92529029D01*
X156210000Y-92214248D01*
X156420330Y-92529029D01*
X156906511Y-92853885D01*
X157480000Y-92967959D01*
X158053489Y-92853885D01*
X158539670Y-92529029D01*
X158750000Y-92214248D01*
X158960330Y-92529029D01*
X159446511Y-92853885D01*
X160020000Y-92967959D01*
X160593489Y-92853885D01*
X161079670Y-92529029D01*
X161290000Y-92214248D01*
X161500330Y-92529029D01*
X161986511Y-92853885D01*
X162560000Y-92967959D01*
X163133489Y-92853885D01*
X163619670Y-92529029D01*
X163830000Y-92214248D01*
X164040330Y-92529029D01*
X164526511Y-92853885D01*
X165100000Y-92967959D01*
X165673489Y-92853885D01*
X166159670Y-92529029D01*
X166484526Y-92042848D01*
X166598600Y-91469359D01*
X166598600Y-91410641D01*
X166484526Y-90837152D01*
X166159670Y-90350971D01*
X165888828Y-90170000D01*
X166159670Y-89989029D01*
X166484526Y-89502848D01*
X166598600Y-88929359D01*
X166598600Y-88870641D01*
X166484526Y-88297152D01*
X166159670Y-87810971D01*
X165673489Y-87486115D01*
X165100000Y-87372041D01*
X164526511Y-87486115D01*
X164040330Y-87810971D01*
X163830000Y-88125752D01*
X163619670Y-87810971D01*
X163133489Y-87486115D01*
X162560000Y-87372041D01*
X161986511Y-87486115D01*
X161500330Y-87810971D01*
X161290000Y-88125752D01*
X161079670Y-87810971D01*
X160593489Y-87486115D01*
X160020000Y-87372041D01*
X159446511Y-87486115D01*
X158960330Y-87810971D01*
X158750000Y-88125752D01*
X158539670Y-87810971D01*
X158053489Y-87486115D01*
X157480000Y-87372041D01*
X156906511Y-87486115D01*
X156420330Y-87810971D01*
X156210000Y-88125752D01*
X155999670Y-87810971D01*
X155513489Y-87486115D01*
X154940000Y-87372041D01*
X154366511Y-87486115D01*
X153880330Y-87810971D01*
X153670000Y-88125752D01*
X153459670Y-87810971D01*
X152973489Y-87486115D01*
X152400000Y-87372041D01*
X151826511Y-87486115D01*
X151340330Y-87810971D01*
X151130000Y-88125752D01*
X150919670Y-87810971D01*
X150433489Y-87486115D01*
X149860000Y-87372041D01*
X149286511Y-87486115D01*
X148800330Y-87810971D01*
X148590000Y-88125752D01*
X148379670Y-87810971D01*
X147893489Y-87486115D01*
X147320000Y-87372041D01*
X146746511Y-87486115D01*
X146260330Y-87810971D01*
X146050000Y-88125752D01*
X145839670Y-87810971D01*
X145353489Y-87486115D01*
X144780000Y-87372041D01*
X144206511Y-87486115D01*
X143720330Y-87810971D01*
X143510000Y-88125752D01*
X143299670Y-87810971D01*
X142813489Y-87486115D01*
X142240000Y-87372041D01*
X141666511Y-87486115D01*
X141180330Y-87810971D01*
X140970000Y-88125752D01*
X140759670Y-87810971D01*
X140273489Y-87486115D01*
X139700000Y-87372041D01*
X139126511Y-87486115D01*
X138640330Y-87810971D01*
X138430000Y-88125752D01*
X138219670Y-87810971D01*
X137733489Y-87486115D01*
X137160000Y-87372041D01*
X136586511Y-87486115D01*
X136100330Y-87810971D01*
X135890000Y-88125752D01*
X135679670Y-87810971D01*
X135193489Y-87486115D01*
X134620000Y-87372041D01*
X134046511Y-87486115D01*
X133560330Y-87810971D01*
X133350000Y-88125752D01*
X133139670Y-87810971D01*
X132653489Y-87486115D01*
X132080000Y-87372041D01*
X131506511Y-87486115D01*
X131020330Y-87810971D01*
X130695474Y-88297152D01*
X130581400Y-88870641D01*
X130581400Y-88929359D01*
X130695474Y-89502848D01*
X131006574Y-89968442D01*
X130981083Y-89973238D01*
X130764959Y-90112310D01*
X130619969Y-90324510D01*
X130568960Y-90576400D01*
X66750000Y-90576400D01*
X66750000Y-80872346D01*
X68877974Y-80872346D01*
X68884984Y-81297425D01*
X68884613Y-81722619D01*
X68892303Y-81741230D01*
X68892635Y-81761363D01*
X69204640Y-82514610D01*
X69213845Y-82519420D01*
X69224155Y-82544372D01*
X69852321Y-83173636D01*
X69880057Y-83185153D01*
X69885390Y-83195360D01*
X70280797Y-83351554D01*
X70673481Y-83514611D01*
X70693619Y-83514629D01*
X70712346Y-83522026D01*
X71137425Y-83515016D01*
X71562619Y-83515387D01*
X71581230Y-83507697D01*
X71601363Y-83507365D01*
X72354610Y-83195360D01*
X72359420Y-83186155D01*
X72384372Y-83175845D01*
X73013636Y-82547679D01*
X73025153Y-82519943D01*
X73035360Y-82514610D01*
X73191554Y-82119203D01*
X73354611Y-81726519D01*
X73354629Y-81706381D01*
X73362026Y-81687654D01*
X73355016Y-81262575D01*
X73355356Y-80872346D01*
X223817974Y-80872346D01*
X223824984Y-81297425D01*
X223824613Y-81722619D01*
X223832303Y-81741230D01*
X223832635Y-81761363D01*
X224144640Y-82514610D01*
X224153845Y-82519420D01*
X224164155Y-82544372D01*
X224792321Y-83173636D01*
X224820057Y-83185153D01*
X224825390Y-83195360D01*
X225220797Y-83351554D01*
X225613481Y-83514611D01*
X225633619Y-83514629D01*
X225652346Y-83522026D01*
X226077425Y-83515016D01*
X226502619Y-83515387D01*
X226521230Y-83507697D01*
X226541363Y-83507365D01*
X227294610Y-83195360D01*
X227299420Y-83186155D01*
X227324372Y-83175845D01*
X227953636Y-82547679D01*
X227965153Y-82519943D01*
X227975360Y-82514610D01*
X228131554Y-82119203D01*
X228294611Y-81726519D01*
X228294629Y-81706381D01*
X228302026Y-81687654D01*
X228295016Y-81262575D01*
X228295387Y-80837381D01*
X228287697Y-80818770D01*
X228287365Y-80798637D01*
X227975360Y-80045390D01*
X227966155Y-80040580D01*
X227955845Y-80015628D01*
X227327679Y-79386364D01*
X227299943Y-79374847D01*
X227294610Y-79364640D01*
X226899203Y-79208446D01*
X226506519Y-79045389D01*
X226486381Y-79045371D01*
X226467654Y-79037974D01*
X226042575Y-79044984D01*
X225617381Y-79044613D01*
X225598770Y-79052303D01*
X225578637Y-79052635D01*
X224825390Y-79364640D01*
X224820580Y-79373845D01*
X224795628Y-79384155D01*
X224166364Y-80012321D01*
X224154847Y-80040057D01*
X224144640Y-80045390D01*
X223988446Y-80440797D01*
X223825389Y-80833481D01*
X223825371Y-80853619D01*
X223817974Y-80872346D01*
X73355356Y-80872346D01*
X73355387Y-80837381D01*
X73347697Y-80818770D01*
X73347365Y-80798637D01*
X73035360Y-80045390D01*
X73026155Y-80040580D01*
X73015845Y-80015628D01*
X72387679Y-79386364D01*
X72359943Y-79374847D01*
X72354610Y-79364640D01*
X71959203Y-79208446D01*
X71566519Y-79045389D01*
X71546381Y-79045371D01*
X71527654Y-79037974D01*
X71102575Y-79044984D01*
X70677381Y-79044613D01*
X70658770Y-79052303D01*
X70638637Y-79052635D01*
X69885390Y-79364640D01*
X69880580Y-79373845D01*
X69855628Y-79384155D01*
X69226364Y-80012321D01*
X69214847Y-80040057D01*
X69204640Y-80045390D01*
X69048446Y-80440797D01*
X68885389Y-80833481D01*
X68885371Y-80853619D01*
X68877974Y-80872346D01*
X66750000Y-80872346D01*
X66750000Y-76910000D01*
X230430000Y-76910000D01*
X230430000Y-132640000D01*
X230430000Y-132640000D01*
G37*
X230430000Y-132640000D02*
X66750000Y-132640000D01*
X66750000Y-127862346D01*
X68877974Y-127862346D01*
X68884984Y-128287425D01*
X68884613Y-128712619D01*
X68892303Y-128731230D01*
X68892635Y-128751363D01*
X69204640Y-129504610D01*
X69213845Y-129509420D01*
X69224155Y-129534372D01*
X69852321Y-130163636D01*
X69880057Y-130175153D01*
X69885390Y-130185360D01*
X70280797Y-130341554D01*
X70673481Y-130504611D01*
X70693619Y-130504629D01*
X70712346Y-130512026D01*
X71137425Y-130505016D01*
X71562619Y-130505387D01*
X71581230Y-130497697D01*
X71601363Y-130497365D01*
X72354610Y-130185360D01*
X72359420Y-130176155D01*
X72384372Y-130165845D01*
X73013636Y-129537679D01*
X73025153Y-129509943D01*
X73035360Y-129504610D01*
X73191554Y-129109203D01*
X73354611Y-128716519D01*
X73354629Y-128696381D01*
X73362026Y-128677654D01*
X73355016Y-128252575D01*
X73355356Y-127862346D01*
X223817974Y-127862346D01*
X223824984Y-128287425D01*
X223824613Y-128712619D01*
X223832303Y-128731230D01*
X223832635Y-128751363D01*
X224144640Y-129504610D01*
X224153845Y-129509420D01*
X224164155Y-129534372D01*
X224792321Y-130163636D01*
X224820057Y-130175153D01*
X224825390Y-130185360D01*
X225220797Y-130341554D01*
X225613481Y-130504611D01*
X225633619Y-130504629D01*
X225652346Y-130512026D01*
X226077425Y-130505016D01*
X226502619Y-130505387D01*
X226521230Y-130497697D01*
X226541363Y-130497365D01*
X227294610Y-130185360D01*
X227299420Y-130176155D01*
X227324372Y-130165845D01*
X227953636Y-129537679D01*
X227965153Y-129509943D01*
X227975360Y-129504610D01*
X228131554Y-129109203D01*
X228294611Y-128716519D01*
X228294629Y-128696381D01*
X228302026Y-128677654D01*
X228295016Y-128252575D01*
X228295387Y-127827381D01*
X228287697Y-127808770D01*
X228287365Y-127788637D01*
X227975360Y-127035390D01*
X227966155Y-127030580D01*
X227955845Y-127005628D01*
X227327679Y-126376364D01*
X227299943Y-126364847D01*
X227294610Y-126354640D01*
X226899203Y-126198446D01*
X226506519Y-126035389D01*
X226486381Y-126035371D01*
X226467654Y-126027974D01*
X226042575Y-126034984D01*
X225617381Y-126034613D01*
X225598770Y-126042303D01*
X225578637Y-126042635D01*
X224825390Y-126354640D01*
X224820580Y-126363845D01*
X224795628Y-126374155D01*
X224166364Y-127002321D01*
X224154847Y-127030057D01*
X224144640Y-127035390D01*
X223988446Y-127430797D01*
X223825389Y-127823481D01*
X223825371Y-127843619D01*
X223817974Y-127862346D01*
X73355356Y-127862346D01*
X73355387Y-127827381D01*
X73347697Y-127808770D01*
X73347365Y-127788637D01*
X73035360Y-127035390D01*
X73026155Y-127030580D01*
X73015845Y-127005628D01*
X72387679Y-126376364D01*
X72359943Y-126364847D01*
X72354610Y-126354640D01*
X71959203Y-126198446D01*
X71566519Y-126035389D01*
X71546381Y-126035371D01*
X71527654Y-126027974D01*
X71102575Y-126034984D01*
X70677381Y-126034613D01*
X70658770Y-126042303D01*
X70638637Y-126042635D01*
X69885390Y-126354640D01*
X69880580Y-126363845D01*
X69855628Y-126374155D01*
X69226364Y-127002321D01*
X69214847Y-127030057D01*
X69204640Y-127035390D01*
X69048446Y-127430797D01*
X68885389Y-127823481D01*
X68885371Y-127843619D01*
X68877974Y-127862346D01*
X66750000Y-127862346D01*
X66750000Y-122196661D01*
X82422758Y-122196661D01*
X82634990Y-122710303D01*
X83027630Y-123103629D01*
X83540900Y-123316757D01*
X84096661Y-123317242D01*
X84610303Y-123105010D01*
X85003629Y-122712370D01*
X85089949Y-122504488D01*
X85174990Y-122710303D01*
X85567630Y-123103629D01*
X86080900Y-123316757D01*
X86636661Y-123317242D01*
X87150303Y-123105010D01*
X87543629Y-122712370D01*
X87629949Y-122504488D01*
X87714990Y-122710303D01*
X88107630Y-123103629D01*
X88620900Y-123316757D01*
X89176661Y-123317242D01*
X89690303Y-123105010D01*
X90083629Y-122712370D01*
X90169949Y-122504488D01*
X90254990Y-122710303D01*
X90647630Y-123103629D01*
X91160900Y-123316757D01*
X91716661Y-123317242D01*
X92230303Y-123105010D01*
X92623629Y-122712370D01*
X92709949Y-122504488D01*
X92794990Y-122710303D01*
X93187630Y-123103629D01*
X93700900Y-123316757D01*
X94256661Y-123317242D01*
X94770303Y-123105010D01*
X95163629Y-122712370D01*
X95249949Y-122504488D01*
X95334990Y-122710303D01*
X95727630Y-123103629D01*
X96240900Y-123316757D01*
X96796661Y-123317242D01*
X97310303Y-123105010D01*
X97703629Y-122712370D01*
X97789949Y-122504488D01*
X97874990Y-122710303D01*
X98267630Y-123103629D01*
X98780900Y-123316757D01*
X99336661Y-123317242D01*
X99850303Y-123105010D01*
X100243629Y-122712370D01*
X100329949Y-122504488D01*
X100414990Y-122710303D01*
X100807630Y-123103629D01*
X101320900Y-123316757D01*
X101876661Y-123317242D01*
X102390303Y-123105010D01*
X102783629Y-122712370D01*
X102869949Y-122504488D01*
X102954990Y-122710303D01*
X103347630Y-123103629D01*
X103860900Y-123316757D01*
X104416661Y-123317242D01*
X104930303Y-123105010D01*
X105323629Y-122712370D01*
X105409949Y-122504488D01*
X105494990Y-122710303D01*
X105887630Y-123103629D01*
X106400900Y-123316757D01*
X106956661Y-123317242D01*
X107470303Y-123105010D01*
X107863629Y-122712370D01*
X107949949Y-122504488D01*
X108034990Y-122710303D01*
X108427630Y-123103629D01*
X108940900Y-123316757D01*
X109496661Y-123317242D01*
X110010303Y-123105010D01*
X110403629Y-122712370D01*
X110489949Y-122504488D01*
X110574990Y-122710303D01*
X110967630Y-123103629D01*
X111480900Y-123316757D01*
X112036661Y-123317242D01*
X112550303Y-123105010D01*
X112943629Y-122712370D01*
X113029949Y-122504488D01*
X113114990Y-122710303D01*
X113507630Y-123103629D01*
X114020900Y-123316757D01*
X114576661Y-123317242D01*
X115090303Y-123105010D01*
X115483629Y-122712370D01*
X115696757Y-122199100D01*
X115696759Y-122196661D01*
X181482758Y-122196661D01*
X181694990Y-122710303D01*
X182087630Y-123103629D01*
X182600900Y-123316757D01*
X183156661Y-123317242D01*
X183670303Y-123105010D01*
X184063629Y-122712370D01*
X184149949Y-122504488D01*
X184234990Y-122710303D01*
X184627630Y-123103629D01*
X185140900Y-123316757D01*
X185696661Y-123317242D01*
X186210303Y-123105010D01*
X186603629Y-122712370D01*
X186689949Y-122504488D01*
X186774990Y-122710303D01*
X187167630Y-123103629D01*
X187680900Y-123316757D01*
X188236661Y-123317242D01*
X188750303Y-123105010D01*
X189143629Y-122712370D01*
X189229949Y-122504488D01*
X189314990Y-122710303D01*
X189707630Y-123103629D01*
X190220900Y-123316757D01*
X190776661Y-123317242D01*
X191290303Y-123105010D01*
X191683629Y-122712370D01*
X191769949Y-122504488D01*
X191854990Y-122710303D01*
X192247630Y-123103629D01*
X192760900Y-123316757D01*
X193316661Y-123317242D01*
X193830303Y-123105010D01*
X194223629Y-122712370D01*
X194309949Y-122504488D01*
X194394990Y-122710303D01*
X194787630Y-123103629D01*
X195300900Y-123316757D01*
X195856661Y-123317242D01*
X196370303Y-123105010D01*
X196763629Y-122712370D01*
X196849949Y-122504488D01*
X196934990Y-122710303D01*
X197327630Y-123103629D01*
X197840900Y-123316757D01*
X198396661Y-123317242D01*
X198910303Y-123105010D01*
X199303629Y-122712370D01*
X199389949Y-122504488D01*
X199474990Y-122710303D01*
X199867630Y-123103629D01*
X200380900Y-123316757D01*
X200936661Y-123317242D01*
X201450303Y-123105010D01*
X201843629Y-122712370D01*
X201929949Y-122504488D01*
X202014990Y-122710303D01*
X202407630Y-123103629D01*
X202920900Y-123316757D01*
X203476661Y-123317242D01*
X203990303Y-123105010D01*
X204383629Y-122712370D01*
X204469949Y-122504488D01*
X204554990Y-122710303D01*
X204947630Y-123103629D01*
X205460900Y-123316757D01*
X206016661Y-123317242D01*
X206530303Y-123105010D01*
X206923629Y-122712370D01*
X207009949Y-122504488D01*
X207094990Y-122710303D01*
X207487630Y-123103629D01*
X208000900Y-123316757D01*
X208556661Y-123317242D01*
X209070303Y-123105010D01*
X209463629Y-122712370D01*
X209549949Y-122504488D01*
X209634990Y-122710303D01*
X210027630Y-123103629D01*
X210540900Y-123316757D01*
X211096661Y-123317242D01*
X211610303Y-123105010D01*
X212003629Y-122712370D01*
X212089949Y-122504488D01*
X212174990Y-122710303D01*
X212567630Y-123103629D01*
X213080900Y-123316757D01*
X213636661Y-123317242D01*
X214150303Y-123105010D01*
X214543629Y-122712370D01*
X214756757Y-122199100D01*
X214757242Y-121643339D01*
X214545010Y-121129697D01*
X214152370Y-120736371D01*
X213639100Y-120523243D01*
X213083339Y-120522758D01*
X212569697Y-120734990D01*
X212176371Y-121127630D01*
X212090051Y-121335512D01*
X212005010Y-121129697D01*
X211612370Y-120736371D01*
X211099100Y-120523243D01*
X210543339Y-120522758D01*
X210029697Y-120734990D01*
X209636371Y-121127630D01*
X209550051Y-121335512D01*
X209465010Y-121129697D01*
X209072370Y-120736371D01*
X208559100Y-120523243D01*
X208003339Y-120522758D01*
X207489697Y-120734990D01*
X207096371Y-121127630D01*
X207010051Y-121335512D01*
X206925010Y-121129697D01*
X206532370Y-120736371D01*
X206019100Y-120523243D01*
X205463339Y-120522758D01*
X204949697Y-120734990D01*
X204556371Y-121127630D01*
X204470051Y-121335512D01*
X204385010Y-121129697D01*
X203992370Y-120736371D01*
X203479100Y-120523243D01*
X202923339Y-120522758D01*
X202409697Y-120734990D01*
X202016371Y-121127630D01*
X201930051Y-121335512D01*
X201845010Y-121129697D01*
X201452370Y-120736371D01*
X200939100Y-120523243D01*
X200383339Y-120522758D01*
X199869697Y-120734990D01*
X199476371Y-121127630D01*
X199390051Y-121335512D01*
X199305010Y-121129697D01*
X198912370Y-120736371D01*
X198399100Y-120523243D01*
X197843339Y-120522758D01*
X197329697Y-120734990D01*
X196936371Y-121127630D01*
X196850051Y-121335512D01*
X196765010Y-121129697D01*
X196372370Y-120736371D01*
X195859100Y-120523243D01*
X195303339Y-120522758D01*
X194789697Y-120734990D01*
X194396371Y-121127630D01*
X194310051Y-121335512D01*
X194225010Y-121129697D01*
X193832370Y-120736371D01*
X193319100Y-120523243D01*
X192763339Y-120522758D01*
X192249697Y-120734990D01*
X191856371Y-121127630D01*
X191770051Y-121335512D01*
X191685010Y-121129697D01*
X191292370Y-120736371D01*
X190779100Y-120523243D01*
X190223339Y-120522758D01*
X189709697Y-120734990D01*
X189316371Y-121127630D01*
X189230051Y-121335512D01*
X189145010Y-121129697D01*
X188752370Y-120736371D01*
X188239100Y-120523243D01*
X187683339Y-120522758D01*
X187169697Y-120734990D01*
X186776371Y-121127630D01*
X186690051Y-121335512D01*
X186605010Y-121129697D01*
X186212370Y-120736371D01*
X185699100Y-120523243D01*
X185143339Y-120522758D01*
X184629697Y-120734990D01*
X184236371Y-121127630D01*
X184150051Y-121335512D01*
X184065010Y-121129697D01*
X183672370Y-120736371D01*
X183159100Y-120523243D01*
X182603339Y-120522758D01*
X182089697Y-120734990D01*
X181696371Y-121127630D01*
X181483243Y-121640900D01*
X181482758Y-122196661D01*
X115696759Y-122196661D01*
X115697242Y-121643339D01*
X115485010Y-121129697D01*
X115092370Y-120736371D01*
X114579100Y-120523243D01*
X114023339Y-120522758D01*
X113509697Y-120734990D01*
X113116371Y-121127630D01*
X113030051Y-121335512D01*
X112945010Y-121129697D01*
X112552370Y-120736371D01*
X112039100Y-120523243D01*
X111483339Y-120522758D01*
X110969697Y-120734990D01*
X110576371Y-121127630D01*
X110490051Y-121335512D01*
X110405010Y-121129697D01*
X110012370Y-120736371D01*
X109499100Y-120523243D01*
X108943339Y-120522758D01*
X108429697Y-120734990D01*
X108036371Y-121127630D01*
X107950051Y-121335512D01*
X107865010Y-121129697D01*
X107472370Y-120736371D01*
X106959100Y-120523243D01*
X106403339Y-120522758D01*
X105889697Y-120734990D01*
X105496371Y-121127630D01*
X105410051Y-121335512D01*
X105325010Y-121129697D01*
X104932370Y-120736371D01*
X104419100Y-120523243D01*
X103863339Y-120522758D01*
X103349697Y-120734990D01*
X102956371Y-121127630D01*
X102870051Y-121335512D01*
X102785010Y-121129697D01*
X102392370Y-120736371D01*
X101879100Y-120523243D01*
X101323339Y-120522758D01*
X100809697Y-120734990D01*
X100416371Y-121127630D01*
X100330051Y-121335512D01*
X100245010Y-121129697D01*
X99852370Y-120736371D01*
X99339100Y-120523243D01*
X98783339Y-120522758D01*
X98269697Y-120734990D01*
X97876371Y-121127630D01*
X97790051Y-121335512D01*
X97705010Y-121129697D01*
X97312370Y-120736371D01*
X96799100Y-120523243D01*
X96243339Y-120522758D01*
X95729697Y-120734990D01*
X95336371Y-121127630D01*
X95250051Y-121335512D01*
X95165010Y-121129697D01*
X94772370Y-120736371D01*
X94259100Y-120523243D01*
X93703339Y-120522758D01*
X93189697Y-120734990D01*
X92796371Y-121127630D01*
X92710051Y-121335512D01*
X92625010Y-121129697D01*
X92232370Y-120736371D01*
X91719100Y-120523243D01*
X91163339Y-120522758D01*
X90649697Y-120734990D01*
X90256371Y-121127630D01*
X90170051Y-121335512D01*
X90085010Y-121129697D01*
X89692370Y-120736371D01*
X89179100Y-120523243D01*
X88623339Y-120522758D01*
X88109697Y-120734990D01*
X87716371Y-121127630D01*
X87630051Y-121335512D01*
X87545010Y-121129697D01*
X87152370Y-120736371D01*
X86639100Y-120523243D01*
X86083339Y-120522758D01*
X85569697Y-120734990D01*
X85176371Y-121127630D01*
X85090051Y-121335512D01*
X85005010Y-121129697D01*
X84612370Y-120736371D01*
X84099100Y-120523243D01*
X83543339Y-120522758D01*
X83029697Y-120734990D01*
X82636371Y-121127630D01*
X82423243Y-121640900D01*
X82422758Y-122196661D01*
X66750000Y-122196661D01*
X66750000Y-90576400D01*
X130568960Y-90576400D01*
X130568960Y-92303600D01*
X130613238Y-92538917D01*
X130752310Y-92755041D01*
X130964510Y-92900031D01*
X131216400Y-92951040D01*
X132943600Y-92951040D01*
X133178917Y-92906762D01*
X133395041Y-92767690D01*
X133540031Y-92555490D01*
X133548864Y-92511869D01*
X133560330Y-92529029D01*
X134046511Y-92853885D01*
X134620000Y-92967959D01*
X135193489Y-92853885D01*
X135679670Y-92529029D01*
X135890000Y-92214248D01*
X136100330Y-92529029D01*
X136586511Y-92853885D01*
X137160000Y-92967959D01*
X137733489Y-92853885D01*
X138219670Y-92529029D01*
X138430000Y-92214248D01*
X138640330Y-92529029D01*
X139126511Y-92853885D01*
X139700000Y-92967959D01*
X140273489Y-92853885D01*
X140759670Y-92529029D01*
X140970000Y-92214248D01*
X141180330Y-92529029D01*
X141666511Y-92853885D01*
X142240000Y-92967959D01*
X142813489Y-92853885D01*
X143299670Y-92529029D01*
X143510000Y-92214248D01*
X143720330Y-92529029D01*
X144206511Y-92853885D01*
X144780000Y-92967959D01*
X145353489Y-92853885D01*
X145839670Y-92529029D01*
X146050000Y-92214248D01*
X146260330Y-92529029D01*
X146746511Y-92853885D01*
X147320000Y-92967959D01*
X147893489Y-92853885D01*
X148379670Y-92529029D01*
X148590000Y-92214248D01*
X148800330Y-92529029D01*
X149286511Y-92853885D01*
X149860000Y-92967959D01*
X150433489Y-92853885D01*
X150919670Y-92529029D01*
X151130000Y-92214248D01*
X151340330Y-92529029D01*
X151826511Y-92853885D01*
X152400000Y-92967959D01*
X152973489Y-92853885D01*
X153459670Y-92529029D01*
X153670000Y-92214248D01*
X153880330Y-92529029D01*
X154366511Y-92853885D01*
X154940000Y-92967959D01*
X155513489Y-92853885D01*
X155999670Y-92529029D01*
X156210000Y-92214248D01*
X156420330Y-92529029D01*
X156906511Y-92853885D01*
X157480000Y-92967959D01*
X158053489Y-92853885D01*
X158539670Y-92529029D01*
X158750000Y-92214248D01*
X158960330Y-92529029D01*
X159446511Y-92853885D01*
X160020000Y-92967959D01*
X160593489Y-92853885D01*
X161079670Y-92529029D01*
X161290000Y-92214248D01*
X161500330Y-92529029D01*
X161986511Y-92853885D01*
X162560000Y-92967959D01*
X163133489Y-92853885D01*
X163619670Y-92529029D01*
X163830000Y-92214248D01*
X164040330Y-92529029D01*
X164526511Y-92853885D01*
X165100000Y-92967959D01*
X165673489Y-92853885D01*
X166159670Y-92529029D01*
X166484526Y-92042848D01*
X166598600Y-91469359D01*
X166598600Y-91410641D01*
X166484526Y-90837152D01*
X166159670Y-90350971D01*
X165888828Y-90170000D01*
X166159670Y-89989029D01*
X166484526Y-89502848D01*
X166598600Y-88929359D01*
X166598600Y-88870641D01*
X166484526Y-88297152D01*
X166159670Y-87810971D01*
X165673489Y-87486115D01*
X165100000Y-87372041D01*
X164526511Y-87486115D01*
X164040330Y-87810971D01*
X163830000Y-88125752D01*
X163619670Y-87810971D01*
X163133489Y-87486115D01*
X162560000Y-87372041D01*
X161986511Y-87486115D01*
X161500330Y-87810971D01*
X161290000Y-88125752D01*
X161079670Y-87810971D01*
X160593489Y-87486115D01*
X160020000Y-87372041D01*
X159446511Y-87486115D01*
X158960330Y-87810971D01*
X158750000Y-88125752D01*
X158539670Y-87810971D01*
X158053489Y-87486115D01*
X157480000Y-87372041D01*
X156906511Y-87486115D01*
X156420330Y-87810971D01*
X156210000Y-88125752D01*
X155999670Y-87810971D01*
X155513489Y-87486115D01*
X154940000Y-87372041D01*
X154366511Y-87486115D01*
X153880330Y-87810971D01*
X153670000Y-88125752D01*
X153459670Y-87810971D01*
X152973489Y-87486115D01*
X152400000Y-87372041D01*
X151826511Y-87486115D01*
X151340330Y-87810971D01*
X151130000Y-88125752D01*
X150919670Y-87810971D01*
X150433489Y-87486115D01*
X149860000Y-87372041D01*
X149286511Y-87486115D01*
X148800330Y-87810971D01*
X148590000Y-88125752D01*
X148379670Y-87810971D01*
X147893489Y-87486115D01*
X147320000Y-87372041D01*
X146746511Y-87486115D01*
X146260330Y-87810971D01*
X146050000Y-88125752D01*
X145839670Y-87810971D01*
X145353489Y-87486115D01*
X144780000Y-87372041D01*
X144206511Y-87486115D01*
X143720330Y-87810971D01*
X143510000Y-88125752D01*
X143299670Y-87810971D01*
X142813489Y-87486115D01*
X142240000Y-87372041D01*
X141666511Y-87486115D01*
X141180330Y-87810971D01*
X140970000Y-88125752D01*
X140759670Y-87810971D01*
X140273489Y-87486115D01*
X139700000Y-87372041D01*
X139126511Y-87486115D01*
X138640330Y-87810971D01*
X138430000Y-88125752D01*
X138219670Y-87810971D01*
X137733489Y-87486115D01*
X137160000Y-87372041D01*
X136586511Y-87486115D01*
X136100330Y-87810971D01*
X135890000Y-88125752D01*
X135679670Y-87810971D01*
X135193489Y-87486115D01*
X134620000Y-87372041D01*
X134046511Y-87486115D01*
X133560330Y-87810971D01*
X133350000Y-88125752D01*
X133139670Y-87810971D01*
X132653489Y-87486115D01*
X132080000Y-87372041D01*
X131506511Y-87486115D01*
X131020330Y-87810971D01*
X130695474Y-88297152D01*
X130581400Y-88870641D01*
X130581400Y-88929359D01*
X130695474Y-89502848D01*
X131006574Y-89968442D01*
X130981083Y-89973238D01*
X130764959Y-90112310D01*
X130619969Y-90324510D01*
X130568960Y-90576400D01*
X66750000Y-90576400D01*
X66750000Y-80872346D01*
X68877974Y-80872346D01*
X68884984Y-81297425D01*
X68884613Y-81722619D01*
X68892303Y-81741230D01*
X68892635Y-81761363D01*
X69204640Y-82514610D01*
X69213845Y-82519420D01*
X69224155Y-82544372D01*
X69852321Y-83173636D01*
X69880057Y-83185153D01*
X69885390Y-83195360D01*
X70280797Y-83351554D01*
X70673481Y-83514611D01*
X70693619Y-83514629D01*
X70712346Y-83522026D01*
X71137425Y-83515016D01*
X71562619Y-83515387D01*
X71581230Y-83507697D01*
X71601363Y-83507365D01*
X72354610Y-83195360D01*
X72359420Y-83186155D01*
X72384372Y-83175845D01*
X73013636Y-82547679D01*
X73025153Y-82519943D01*
X73035360Y-82514610D01*
X73191554Y-82119203D01*
X73354611Y-81726519D01*
X73354629Y-81706381D01*
X73362026Y-81687654D01*
X73355016Y-81262575D01*
X73355356Y-80872346D01*
X223817974Y-80872346D01*
X223824984Y-81297425D01*
X223824613Y-81722619D01*
X223832303Y-81741230D01*
X223832635Y-81761363D01*
X224144640Y-82514610D01*
X224153845Y-82519420D01*
X224164155Y-82544372D01*
X224792321Y-83173636D01*
X224820057Y-83185153D01*
X224825390Y-83195360D01*
X225220797Y-83351554D01*
X225613481Y-83514611D01*
X225633619Y-83514629D01*
X225652346Y-83522026D01*
X226077425Y-83515016D01*
X226502619Y-83515387D01*
X226521230Y-83507697D01*
X226541363Y-83507365D01*
X227294610Y-83195360D01*
X227299420Y-83186155D01*
X227324372Y-83175845D01*
X227953636Y-82547679D01*
X227965153Y-82519943D01*
X227975360Y-82514610D01*
X228131554Y-82119203D01*
X228294611Y-81726519D01*
X228294629Y-81706381D01*
X228302026Y-81687654D01*
X228295016Y-81262575D01*
X228295387Y-80837381D01*
X228287697Y-80818770D01*
X228287365Y-80798637D01*
X227975360Y-80045390D01*
X227966155Y-80040580D01*
X227955845Y-80015628D01*
X227327679Y-79386364D01*
X227299943Y-79374847D01*
X227294610Y-79364640D01*
X226899203Y-79208446D01*
X226506519Y-79045389D01*
X226486381Y-79045371D01*
X226467654Y-79037974D01*
X226042575Y-79044984D01*
X225617381Y-79044613D01*
X225598770Y-79052303D01*
X225578637Y-79052635D01*
X224825390Y-79364640D01*
X224820580Y-79373845D01*
X224795628Y-79384155D01*
X224166364Y-80012321D01*
X224154847Y-80040057D01*
X224144640Y-80045390D01*
X223988446Y-80440797D01*
X223825389Y-80833481D01*
X223825371Y-80853619D01*
X223817974Y-80872346D01*
X73355356Y-80872346D01*
X73355387Y-80837381D01*
X73347697Y-80818770D01*
X73347365Y-80798637D01*
X73035360Y-80045390D01*
X73026155Y-80040580D01*
X73015845Y-80015628D01*
X72387679Y-79386364D01*
X72359943Y-79374847D01*
X72354610Y-79364640D01*
X71959203Y-79208446D01*
X71566519Y-79045389D01*
X71546381Y-79045371D01*
X71527654Y-79037974D01*
X71102575Y-79044984D01*
X70677381Y-79044613D01*
X70658770Y-79052303D01*
X70638637Y-79052635D01*
X69885390Y-79364640D01*
X69880580Y-79373845D01*
X69855628Y-79384155D01*
X69226364Y-80012321D01*
X69214847Y-80040057D01*
X69204640Y-80045390D01*
X69048446Y-80440797D01*
X68885389Y-80833481D01*
X68885371Y-80853619D01*
X68877974Y-80872346D01*
X66750000Y-80872346D01*
X66750000Y-76910000D01*
X230430000Y-76910000D01*
X230430000Y-132640000D01*
G36*
X136100330Y-89989029D02*
X136371172Y-90170000D01*
X136100330Y-90350971D01*
X135890000Y-90665752D01*
X135679670Y-90350971D01*
X135408828Y-90170000D01*
X135679670Y-89989029D01*
X135890000Y-89674248D01*
X136100330Y-89989029D01*
X136100330Y-89989029D01*
G37*
X136100330Y-89989029D02*
X136371172Y-90170000D01*
X136100330Y-90350971D01*
X135890000Y-90665752D01*
X135679670Y-90350971D01*
X135408828Y-90170000D01*
X135679670Y-89989029D01*
X135890000Y-89674248D01*
X136100330Y-89989029D01*
G36*
X138640330Y-89989029D02*
X138911172Y-90170000D01*
X138640330Y-90350971D01*
X138430000Y-90665752D01*
X138219670Y-90350971D01*
X137948828Y-90170000D01*
X138219670Y-89989029D01*
X138430000Y-89674248D01*
X138640330Y-89989029D01*
X138640330Y-89989029D01*
G37*
X138640330Y-89989029D02*
X138911172Y-90170000D01*
X138640330Y-90350971D01*
X138430000Y-90665752D01*
X138219670Y-90350971D01*
X137948828Y-90170000D01*
X138219670Y-89989029D01*
X138430000Y-89674248D01*
X138640330Y-89989029D01*
G36*
X141180330Y-89989029D02*
X141451172Y-90170000D01*
X141180330Y-90350971D01*
X140970000Y-90665752D01*
X140759670Y-90350971D01*
X140488828Y-90170000D01*
X140759670Y-89989029D01*
X140970000Y-89674248D01*
X141180330Y-89989029D01*
X141180330Y-89989029D01*
G37*
X141180330Y-89989029D02*
X141451172Y-90170000D01*
X141180330Y-90350971D01*
X140970000Y-90665752D01*
X140759670Y-90350971D01*
X140488828Y-90170000D01*
X140759670Y-89989029D01*
X140970000Y-89674248D01*
X141180330Y-89989029D01*
G36*
X143720330Y-89989029D02*
X143991172Y-90170000D01*
X143720330Y-90350971D01*
X143510000Y-90665752D01*
X143299670Y-90350971D01*
X143028828Y-90170000D01*
X143299670Y-89989029D01*
X143510000Y-89674248D01*
X143720330Y-89989029D01*
X143720330Y-89989029D01*
G37*
X143720330Y-89989029D02*
X143991172Y-90170000D01*
X143720330Y-90350971D01*
X143510000Y-90665752D01*
X143299670Y-90350971D01*
X143028828Y-90170000D01*
X143299670Y-89989029D01*
X143510000Y-89674248D01*
X143720330Y-89989029D01*
G36*
X146260330Y-89989029D02*
X146531172Y-90170000D01*
X146260330Y-90350971D01*
X146050000Y-90665752D01*
X145839670Y-90350971D01*
X145568828Y-90170000D01*
X145839670Y-89989029D01*
X146050000Y-89674248D01*
X146260330Y-89989029D01*
X146260330Y-89989029D01*
G37*
X146260330Y-89989029D02*
X146531172Y-90170000D01*
X146260330Y-90350971D01*
X146050000Y-90665752D01*
X145839670Y-90350971D01*
X145568828Y-90170000D01*
X145839670Y-89989029D01*
X146050000Y-89674248D01*
X146260330Y-89989029D01*
G36*
X148800330Y-89989029D02*
X149071172Y-90170000D01*
X148800330Y-90350971D01*
X148590000Y-90665752D01*
X148379670Y-90350971D01*
X148108828Y-90170000D01*
X148379670Y-89989029D01*
X148590000Y-89674248D01*
X148800330Y-89989029D01*
X148800330Y-89989029D01*
G37*
X148800330Y-89989029D02*
X149071172Y-90170000D01*
X148800330Y-90350971D01*
X148590000Y-90665752D01*
X148379670Y-90350971D01*
X148108828Y-90170000D01*
X148379670Y-89989029D01*
X148590000Y-89674248D01*
X148800330Y-89989029D01*
G36*
X151340330Y-89989029D02*
X151611172Y-90170000D01*
X151340330Y-90350971D01*
X151130000Y-90665752D01*
X150919670Y-90350971D01*
X150648828Y-90170000D01*
X150919670Y-89989029D01*
X151130000Y-89674248D01*
X151340330Y-89989029D01*
X151340330Y-89989029D01*
G37*
X151340330Y-89989029D02*
X151611172Y-90170000D01*
X151340330Y-90350971D01*
X151130000Y-90665752D01*
X150919670Y-90350971D01*
X150648828Y-90170000D01*
X150919670Y-89989029D01*
X151130000Y-89674248D01*
X151340330Y-89989029D01*
G36*
X153880330Y-89989029D02*
X154151172Y-90170000D01*
X153880330Y-90350971D01*
X153670000Y-90665752D01*
X153459670Y-90350971D01*
X153188828Y-90170000D01*
X153459670Y-89989029D01*
X153670000Y-89674248D01*
X153880330Y-89989029D01*
X153880330Y-89989029D01*
G37*
X153880330Y-89989029D02*
X154151172Y-90170000D01*
X153880330Y-90350971D01*
X153670000Y-90665752D01*
X153459670Y-90350971D01*
X153188828Y-90170000D01*
X153459670Y-89989029D01*
X153670000Y-89674248D01*
X153880330Y-89989029D01*
G36*
X156420330Y-89989029D02*
X156691172Y-90170000D01*
X156420330Y-90350971D01*
X156210000Y-90665752D01*
X155999670Y-90350971D01*
X155728828Y-90170000D01*
X155999670Y-89989029D01*
X156210000Y-89674248D01*
X156420330Y-89989029D01*
X156420330Y-89989029D01*
G37*
X156420330Y-89989029D02*
X156691172Y-90170000D01*
X156420330Y-90350971D01*
X156210000Y-90665752D01*
X155999670Y-90350971D01*
X155728828Y-90170000D01*
X155999670Y-89989029D01*
X156210000Y-89674248D01*
X156420330Y-89989029D01*
G36*
X158960330Y-89989029D02*
X159231172Y-90170000D01*
X158960330Y-90350971D01*
X158750000Y-90665752D01*
X158539670Y-90350971D01*
X158268828Y-90170000D01*
X158539670Y-89989029D01*
X158750000Y-89674248D01*
X158960330Y-89989029D01*
X158960330Y-89989029D01*
G37*
X158960330Y-89989029D02*
X159231172Y-90170000D01*
X158960330Y-90350971D01*
X158750000Y-90665752D01*
X158539670Y-90350971D01*
X158268828Y-90170000D01*
X158539670Y-89989029D01*
X158750000Y-89674248D01*
X158960330Y-89989029D01*
G36*
X161500330Y-89989029D02*
X161771172Y-90170000D01*
X161500330Y-90350971D01*
X161290000Y-90665752D01*
X161079670Y-90350971D01*
X160808828Y-90170000D01*
X161079670Y-89989029D01*
X161290000Y-89674248D01*
X161500330Y-89989029D01*
X161500330Y-89989029D01*
G37*
X161500330Y-89989029D02*
X161771172Y-90170000D01*
X161500330Y-90350971D01*
X161290000Y-90665752D01*
X161079670Y-90350971D01*
X160808828Y-90170000D01*
X161079670Y-89989029D01*
X161290000Y-89674248D01*
X161500330Y-89989029D01*
G36*
X164040330Y-89989029D02*
X164311172Y-90170000D01*
X164040330Y-90350971D01*
X163830000Y-90665752D01*
X163619670Y-90350971D01*
X163348828Y-90170000D01*
X163619670Y-89989029D01*
X163830000Y-89674248D01*
X164040330Y-89989029D01*
X164040330Y-89989029D01*
G37*
X164040330Y-89989029D02*
X164311172Y-90170000D01*
X164040330Y-90350971D01*
X163830000Y-90665752D01*
X163619670Y-90350971D01*
X163348828Y-90170000D01*
X163619670Y-89989029D01*
X163830000Y-89674248D01*
X164040330Y-89989029D01*
G36*
X133560330Y-89989029D02*
X133831172Y-90170000D01*
X133560330Y-90350971D01*
X133551195Y-90364642D01*
X133546762Y-90341083D01*
X133407690Y-90124959D01*
X133195490Y-89979969D01*
X133151655Y-89971092D01*
X133350000Y-89674248D01*
X133560330Y-89989029D01*
X133560330Y-89989029D01*
G37*
X133560330Y-89989029D02*
X133831172Y-90170000D01*
X133560330Y-90350971D01*
X133551195Y-90364642D01*
X133546762Y-90341083D01*
X133407690Y-90124959D01*
X133195490Y-89979969D01*
X133151655Y-89971092D01*
X133350000Y-89674248D01*
X133560330Y-89989029D01*
M02*
