G04 #@! TF.FileFunction,Legend,Top*
%FSLAX46Y46*%
G04 Gerber Fmt 4.6, Leading zero omitted, Abs format (unit mm)*
G04 Created by KiCad (PCBNEW 4.0.4-stable) date 11/06/16 19:23:54*
%MOMM*%
%LPD*%
G01*
G04 APERTURE LIST*
%ADD10C,0.100000*%
%ADD11C,0.150000*%
%ADD12C,0.450000*%
%ADD13C,0.250000*%
G04 APERTURE END LIST*
D10*
D11*
X74930000Y-119380000D02*
X222250000Y-119380000D01*
D12*
X222250000Y-124460000D02*
X222250000Y-116840000D01*
X74930000Y-116840000D02*
X74930000Y-124460000D01*
X74930000Y-116840000D02*
X74930000Y-85090000D01*
X74930000Y-85090000D02*
X222250000Y-85090000D01*
X222250000Y-85090000D02*
X222250000Y-116840000D01*
X222250000Y-124460000D02*
X74930000Y-124460000D01*
D11*
X166370000Y-87630000D02*
X130810000Y-87630000D01*
X133350000Y-92710000D02*
X166370000Y-92710000D01*
X166370000Y-87630000D02*
X166370000Y-92710000D01*
X130810000Y-87630000D02*
X130810000Y-90170000D01*
X130530000Y-91440000D02*
X130530000Y-92990000D01*
X130810000Y-90170000D02*
X133350000Y-90170000D01*
X133350000Y-90170000D02*
X133350000Y-92710000D01*
X130530000Y-92990000D02*
X132080000Y-92990000D01*
X75517619Y-84018381D02*
X75517619Y-83018381D01*
X75755714Y-83018381D01*
X75898572Y-83066000D01*
X75993810Y-83161238D01*
X76041429Y-83256476D01*
X76089048Y-83446952D01*
X76089048Y-83589810D01*
X76041429Y-83780286D01*
X75993810Y-83875524D01*
X75898572Y-83970762D01*
X75755714Y-84018381D01*
X75517619Y-84018381D01*
X76517619Y-84018381D02*
X76517619Y-83018381D01*
X76946190Y-83970762D02*
X77089047Y-84018381D01*
X77327143Y-84018381D01*
X77422381Y-83970762D01*
X77470000Y-83923143D01*
X77517619Y-83827905D01*
X77517619Y-83732667D01*
X77470000Y-83637429D01*
X77422381Y-83589810D01*
X77327143Y-83542190D01*
X77136666Y-83494571D01*
X77041428Y-83446952D01*
X76993809Y-83399333D01*
X76946190Y-83304095D01*
X76946190Y-83208857D01*
X76993809Y-83113619D01*
X77041428Y-83066000D01*
X77136666Y-83018381D01*
X77374762Y-83018381D01*
X77517619Y-83066000D01*
X77946190Y-84018381D02*
X77946190Y-83018381D01*
X78327143Y-83018381D01*
X78422381Y-83066000D01*
X78470000Y-83113619D01*
X78517619Y-83208857D01*
X78517619Y-83351714D01*
X78470000Y-83446952D01*
X78422381Y-83494571D01*
X78327143Y-83542190D01*
X77946190Y-83542190D01*
X79470000Y-84018381D02*
X78898571Y-84018381D01*
X79184285Y-84018381D02*
X79184285Y-83018381D01*
X79089047Y-83161238D01*
X78993809Y-83256476D01*
X78898571Y-83304095D01*
D13*
X85447145Y-98274381D02*
X84209050Y-97655333D01*
X83590002Y-97036286D01*
X82970954Y-95798190D01*
X82970954Y-95179143D01*
X83590002Y-93941048D01*
X84209050Y-93322000D01*
X85447145Y-92702952D01*
X87923335Y-92702952D01*
X89161431Y-93322000D01*
X89780478Y-93941048D01*
X90399526Y-95179143D01*
X90399526Y-95798190D01*
X89780478Y-97036286D01*
X89161431Y-97655333D01*
X87923335Y-98274381D01*
X85447145Y-98274381D01*
X84209050Y-98893429D01*
X83590002Y-99512476D01*
X82970954Y-100750571D01*
X82970954Y-103226762D01*
X83590002Y-104464857D01*
X84209050Y-105083905D01*
X85447145Y-105702952D01*
X87923335Y-105702952D01*
X89161431Y-105083905D01*
X89780478Y-104464857D01*
X90399526Y-103226762D01*
X90399526Y-100750571D01*
X89780478Y-99512476D01*
X89161431Y-98893429D01*
X87923335Y-98274381D01*
X97828097Y-98274381D02*
X96590002Y-97655333D01*
X95970954Y-97036286D01*
X95351906Y-95798190D01*
X95351906Y-95179143D01*
X95970954Y-93941048D01*
X96590002Y-93322000D01*
X97828097Y-92702952D01*
X100304287Y-92702952D01*
X101542383Y-93322000D01*
X102161430Y-93941048D01*
X102780478Y-95179143D01*
X102780478Y-95798190D01*
X102161430Y-97036286D01*
X101542383Y-97655333D01*
X100304287Y-98274381D01*
X97828097Y-98274381D01*
X96590002Y-98893429D01*
X95970954Y-99512476D01*
X95351906Y-100750571D01*
X95351906Y-103226762D01*
X95970954Y-104464857D01*
X96590002Y-105083905D01*
X97828097Y-105702952D01*
X100304287Y-105702952D01*
X101542383Y-105083905D01*
X102161430Y-104464857D01*
X102780478Y-103226762D01*
X102780478Y-100750571D01*
X102161430Y-99512476D01*
X101542383Y-98893429D01*
X100304287Y-98274381D01*
X110209049Y-98274381D02*
X108970954Y-97655333D01*
X108351906Y-97036286D01*
X107732858Y-95798190D01*
X107732858Y-95179143D01*
X108351906Y-93941048D01*
X108970954Y-93322000D01*
X110209049Y-92702952D01*
X112685239Y-92702952D01*
X113923335Y-93322000D01*
X114542382Y-93941048D01*
X115161430Y-95179143D01*
X115161430Y-95798190D01*
X114542382Y-97036286D01*
X113923335Y-97655333D01*
X112685239Y-98274381D01*
X110209049Y-98274381D01*
X108970954Y-98893429D01*
X108351906Y-99512476D01*
X107732858Y-100750571D01*
X107732858Y-103226762D01*
X108351906Y-104464857D01*
X108970954Y-105083905D01*
X110209049Y-105702952D01*
X112685239Y-105702952D01*
X113923335Y-105083905D01*
X114542382Y-104464857D01*
X115161430Y-103226762D01*
X115161430Y-100750571D01*
X114542382Y-99512476D01*
X113923335Y-98893429D01*
X112685239Y-98274381D01*
X122590001Y-98274381D02*
X121351906Y-97655333D01*
X120732858Y-97036286D01*
X120113810Y-95798190D01*
X120113810Y-95179143D01*
X120732858Y-93941048D01*
X121351906Y-93322000D01*
X122590001Y-92702952D01*
X125066191Y-92702952D01*
X126304287Y-93322000D01*
X126923334Y-93941048D01*
X127542382Y-95179143D01*
X127542382Y-95798190D01*
X126923334Y-97036286D01*
X126304287Y-97655333D01*
X125066191Y-98274381D01*
X122590001Y-98274381D01*
X121351906Y-98893429D01*
X120732858Y-99512476D01*
X120113810Y-100750571D01*
X120113810Y-103226762D01*
X120732858Y-104464857D01*
X121351906Y-105083905D01*
X122590001Y-105702952D01*
X125066191Y-105702952D01*
X126304287Y-105083905D01*
X126923334Y-104464857D01*
X127542382Y-103226762D01*
X127542382Y-100750571D01*
X126923334Y-99512476D01*
X126304287Y-98893429D01*
X125066191Y-98274381D01*
X134970953Y-98274381D02*
X133732858Y-97655333D01*
X133113810Y-97036286D01*
X132494762Y-95798190D01*
X132494762Y-95179143D01*
X133113810Y-93941048D01*
X133732858Y-93322000D01*
X134970953Y-92702952D01*
X137447143Y-92702952D01*
X138685239Y-93322000D01*
X139304286Y-93941048D01*
X139923334Y-95179143D01*
X139923334Y-95798190D01*
X139304286Y-97036286D01*
X138685239Y-97655333D01*
X137447143Y-98274381D01*
X134970953Y-98274381D01*
X133732858Y-98893429D01*
X133113810Y-99512476D01*
X132494762Y-100750571D01*
X132494762Y-103226762D01*
X133113810Y-104464857D01*
X133732858Y-105083905D01*
X134970953Y-105702952D01*
X137447143Y-105702952D01*
X138685239Y-105083905D01*
X139304286Y-104464857D01*
X139923334Y-103226762D01*
X139923334Y-100750571D01*
X139304286Y-99512476D01*
X138685239Y-98893429D01*
X137447143Y-98274381D01*
X147351905Y-98274381D02*
X146113810Y-97655333D01*
X145494762Y-97036286D01*
X144875714Y-95798190D01*
X144875714Y-95179143D01*
X145494762Y-93941048D01*
X146113810Y-93322000D01*
X147351905Y-92702952D01*
X149828095Y-92702952D01*
X151066191Y-93322000D01*
X151685238Y-93941048D01*
X152304286Y-95179143D01*
X152304286Y-95798190D01*
X151685238Y-97036286D01*
X151066191Y-97655333D01*
X149828095Y-98274381D01*
X147351905Y-98274381D01*
X146113810Y-98893429D01*
X145494762Y-99512476D01*
X144875714Y-100750571D01*
X144875714Y-103226762D01*
X145494762Y-104464857D01*
X146113810Y-105083905D01*
X147351905Y-105702952D01*
X149828095Y-105702952D01*
X151066191Y-105083905D01*
X151685238Y-104464857D01*
X152304286Y-103226762D01*
X152304286Y-100750571D01*
X151685238Y-99512476D01*
X151066191Y-98893429D01*
X149828095Y-98274381D01*
X159732857Y-98274381D02*
X158494762Y-97655333D01*
X157875714Y-97036286D01*
X157256666Y-95798190D01*
X157256666Y-95179143D01*
X157875714Y-93941048D01*
X158494762Y-93322000D01*
X159732857Y-92702952D01*
X162209047Y-92702952D01*
X163447143Y-93322000D01*
X164066190Y-93941048D01*
X164685238Y-95179143D01*
X164685238Y-95798190D01*
X164066190Y-97036286D01*
X163447143Y-97655333D01*
X162209047Y-98274381D01*
X159732857Y-98274381D01*
X158494762Y-98893429D01*
X157875714Y-99512476D01*
X157256666Y-100750571D01*
X157256666Y-103226762D01*
X157875714Y-104464857D01*
X158494762Y-105083905D01*
X159732857Y-105702952D01*
X162209047Y-105702952D01*
X163447143Y-105083905D01*
X164066190Y-104464857D01*
X164685238Y-103226762D01*
X164685238Y-100750571D01*
X164066190Y-99512476D01*
X163447143Y-98893429D01*
X162209047Y-98274381D01*
X172113809Y-98274381D02*
X170875714Y-97655333D01*
X170256666Y-97036286D01*
X169637618Y-95798190D01*
X169637618Y-95179143D01*
X170256666Y-93941048D01*
X170875714Y-93322000D01*
X172113809Y-92702952D01*
X174589999Y-92702952D01*
X175828095Y-93322000D01*
X176447142Y-93941048D01*
X177066190Y-95179143D01*
X177066190Y-95798190D01*
X176447142Y-97036286D01*
X175828095Y-97655333D01*
X174589999Y-98274381D01*
X172113809Y-98274381D01*
X170875714Y-98893429D01*
X170256666Y-99512476D01*
X169637618Y-100750571D01*
X169637618Y-103226762D01*
X170256666Y-104464857D01*
X170875714Y-105083905D01*
X172113809Y-105702952D01*
X174589999Y-105702952D01*
X175828095Y-105083905D01*
X176447142Y-104464857D01*
X177066190Y-103226762D01*
X177066190Y-100750571D01*
X176447142Y-99512476D01*
X175828095Y-98893429D01*
X174589999Y-98274381D01*
X184494761Y-98274381D02*
X183256666Y-97655333D01*
X182637618Y-97036286D01*
X182018570Y-95798190D01*
X182018570Y-95179143D01*
X182637618Y-93941048D01*
X183256666Y-93322000D01*
X184494761Y-92702952D01*
X186970951Y-92702952D01*
X188209047Y-93322000D01*
X188828094Y-93941048D01*
X189447142Y-95179143D01*
X189447142Y-95798190D01*
X188828094Y-97036286D01*
X188209047Y-97655333D01*
X186970951Y-98274381D01*
X184494761Y-98274381D01*
X183256666Y-98893429D01*
X182637618Y-99512476D01*
X182018570Y-100750571D01*
X182018570Y-103226762D01*
X182637618Y-104464857D01*
X183256666Y-105083905D01*
X184494761Y-105702952D01*
X186970951Y-105702952D01*
X188209047Y-105083905D01*
X188828094Y-104464857D01*
X189447142Y-103226762D01*
X189447142Y-100750571D01*
X188828094Y-99512476D01*
X188209047Y-98893429D01*
X186970951Y-98274381D01*
X196875713Y-98274381D02*
X195637618Y-97655333D01*
X195018570Y-97036286D01*
X194399522Y-95798190D01*
X194399522Y-95179143D01*
X195018570Y-93941048D01*
X195637618Y-93322000D01*
X196875713Y-92702952D01*
X199351903Y-92702952D01*
X200589999Y-93322000D01*
X201209046Y-93941048D01*
X201828094Y-95179143D01*
X201828094Y-95798190D01*
X201209046Y-97036286D01*
X200589999Y-97655333D01*
X199351903Y-98274381D01*
X196875713Y-98274381D01*
X195637618Y-98893429D01*
X195018570Y-99512476D01*
X194399522Y-100750571D01*
X194399522Y-103226762D01*
X195018570Y-104464857D01*
X195637618Y-105083905D01*
X196875713Y-105702952D01*
X199351903Y-105702952D01*
X200589999Y-105083905D01*
X201209046Y-104464857D01*
X201828094Y-103226762D01*
X201828094Y-100750571D01*
X201209046Y-99512476D01*
X200589999Y-98893429D01*
X199351903Y-98274381D01*
X209256665Y-98274381D02*
X208018570Y-97655333D01*
X207399522Y-97036286D01*
X206780474Y-95798190D01*
X206780474Y-95179143D01*
X207399522Y-93941048D01*
X208018570Y-93322000D01*
X209256665Y-92702952D01*
X211732855Y-92702952D01*
X212970951Y-93322000D01*
X213589998Y-93941048D01*
X214209046Y-95179143D01*
X214209046Y-95798190D01*
X213589998Y-97036286D01*
X212970951Y-97655333D01*
X211732855Y-98274381D01*
X209256665Y-98274381D01*
X208018570Y-98893429D01*
X207399522Y-99512476D01*
X206780474Y-100750571D01*
X206780474Y-103226762D01*
X207399522Y-104464857D01*
X208018570Y-105083905D01*
X209256665Y-105702952D01*
X211732855Y-105702952D01*
X212970951Y-105083905D01*
X213589998Y-104464857D01*
X214209046Y-103226762D01*
X214209046Y-100750571D01*
X213589998Y-99512476D01*
X212970951Y-98893429D01*
X211732855Y-98274381D01*
D11*
X131087905Y-86812381D02*
X131087905Y-85812381D01*
X131468858Y-85812381D01*
X131564096Y-85860000D01*
X131611715Y-85907619D01*
X131659334Y-86002857D01*
X131659334Y-86145714D01*
X131611715Y-86240952D01*
X131564096Y-86288571D01*
X131468858Y-86336190D01*
X131087905Y-86336190D01*
X132611715Y-86812381D02*
X132040286Y-86812381D01*
X132326000Y-86812381D02*
X132326000Y-85812381D01*
X132230762Y-85955238D01*
X132135524Y-86050476D01*
X132040286Y-86098095D01*
M02*
